<?xml version="1.0" encoding="UTF-8"?><svg xmlns="http://www.w3.org/2000/svg" viewBox="0 0 490.68 391.1"><defs><style>.d,.e{fill:#fff;}.f{fill:#62d100;}.g{fill:#fe7e00;}.h{fill:#d10f34;}.i{fill:#5e2a00;}.j{fill:none;}.k,.e{font-family:Helvetica-Bold, Helvetica;font-size:153.82px;}.l{fill:#f9d641;}</style></defs><g id="a"/><g id="b"><g id="c"><g><path d="M101.57,146.72c12.84,.43,28.52,3.32,43.57,10.32,15.49,7.2,28.1,17.2,36.19,32.29,3.97,7.41,4.84,15.34,1.46,23.51-1.67,4.04-2.43,8.31,1.25,12.08,1.45,1.49,2.82,3.89,1.96,5.67-2.21,4.58,.95,5.45,3.87,6.78,2.75,1.25,5.47,2.57,8.21,3.84,1.42,.66,2.69,1.41,2.63,3.27-.07,2.09-1.52,2.89-3.2,3.39-.89,.26-1.87,.51-2.77,.41-4.83-.52-7.59,.02-5.36,6.19,1.85,5.12-.86,9.62-4.6,13.16-1.99,1.88-2.61,3.33-1.63,6.26,3.86,11.44,1.38,21.88-7.33,30.12-8.96,8.48-19.38,13.75-32.12,15.83-6.44,1.05-13.04,4.02-19.85,4.94-23.06,3.1-46.06,2.65-68.72-2.77-12.45-2.98-24.9-6.89-34.71-15.57-8.77-7.76-11.77-18.23-9.86-29.75,.83-5,1.2-9.04-3.16-13.02-2.86-2.61-4.53-6.69-1.97-11.22,1.04-1.84,2.55-5.41-2.49-5.21-1.33,.05-2.6-.86-2.89-2.28-.37-1.76,.8-2.77,2.25-3.51,2.02-1.02,3.98-2.21,6.06-3.08,3.61-1.5,6.95-3.04,6.12-7.95-.11-.66,.16-1.77,.64-2.09,7.03-4.67,2.46-8.29-.81-12.39-6.4-8.02-5.39-22.42,1.48-30.11,4.42-4.95,7.09-11.14,12.32-15.72,10.13-8.86,21.42-15,34.37-18.46,11.68-3.12,23.45-5.26,39.07-4.94Zm84.24,94.38c-9.48-3.15-9.65-3.1-12.35,3.69-1.02,1.36-1.89,2.48,.95,2.66,5.67,.37,10.26-2.72,16.72-4.27l-5.32-2.08Zm-64.56,20.58c-6.79-4.2-8.77-4.06-14.46,.85-2.11,1.82-4.65,3.22-6.46,5.29-1.97,2.26-2.96,1.02-4.98,.05-7.54-3.65-15.45-5.87-24.78-3.58,6.52,2.72,12.44,4.71,17.91,7.58,6.58,3.45,12.32,2.65,17.94-1.71,5.71,.28,10.27-3.22,15.39-4.87,2.1-.67,2.15-2.76-.56-3.6Zm41.67-6.99c4.45-2.49,4.43-6.75,4.4-11.03,3.69-4.1,6.08-9.54,11.92-11.44,1.1-.36,2.02-1.24,1.56-2.6-.36-1.05-.82-2.22-2.13-2.41-1.34-.19-2.27,.85-2.55,1.84-.99,3.4-3.77,5.14-6.26,7.09-8.17,6.4-17.81,9.17-27.77,11.37-5.33,1.17-10.48-.38-15.61-.03-6.43,.43-12.74,.92-19.13-.32-3.96-.77-6.85,1.14-7.48,4.98-.3,1.87-.11,2.19-2.24,2.33-3.03,.2-3.68,3.63-5.21,5.72-.47,.64,.47,2.38,1.59,2.69,2.71,.75,5.14-.07,7.17-2.01,.41-.39,.77-.83,1.17-1.23,7.48-7.54,13.58-8.22,22.36-1.87,3.76,2.72,6.81,2.22,9.97-.49,3.03-2.59,6.14-5.03,9.79-6.69,6.42-2.91,10.15-1.75,14.12,4.16,1.32,1.97,2.95,4.08,4.33-.06Zm17.3-2.73c-5.61,.21-9.88,1.62-12,7.95-2.04,6.07-6.45,6.42-10.53,1.32-1.95-2.44-3.73-2.67-6.31-1.68-6.51,2.51-13.06,4.91-19.59,7.37-13.41,5.05-26.37,11.29-40.47,15.09,1.2,1.54,2.42,1.17,3.47,1.18,16.64,.22,33.16-1.04,49.5-4.31,9.91-1.98,19.8-4.04,28.2-10.18,7.66-.24,14.39-8.41,12.04-14.64-.99-2.62-1.65-2.95-4.32-2.11Zm-5.82,23.56c-.93,.11-1.96,0-2.78,.35-32.88,14.53-67.61,14.4-102.3,11.72-17.18-1.33-34.38-4.9-50.03-13.17-1.39-.73-3.12-1.46-3.35,1.02-.77,8.31-2.45,16.54,4.94,23.53,10.71,10.13,23.38,15.8,37.51,18.75,18.02,3.76,36.14,5.48,54.45,2.19,1.6,2.21,3.82,1.01,5.7,.82,4.78-.47,9.52-1.38,14.3-1.92,13.6-1.52,25.67-6.89,36.4-15.08,8.12-6.2,11.15-14.93,9.98-25.05-.33-2.82-1.8-4.27-4.83-3.17Zm-77.57-123.7c-10.07,1.15-20.23,.58-30.17,3.92-22.23,7.47-41.69,17.84-50.9,41.28-2.76,7.03,.34,16.06,6.97,19.63,8.76,4.71,18.3,5.9,27.91,6.6,27.19,1.98,54.42,1.25,81.63,.74,10.91-.21,21.93-.76,32.49-4.22,15.71-5.14,19.29-14.83,10.75-29.03,.76-3.51-1.83-5.59-3.61-7.86-6.61-8.42-14.95-14.82-24.44-19.68-15.89-8.12-32.68-12.38-50.63-11.39Zm7.47,77.75c4.64,6.23,10.78,8.52,17.26,9.83,17.95,3.64,34.94,2.83,48.67-11.53,1-1.04,2.74-2.09,1.56-3.69-.87-1.18-2.46-.23-3.69,.17-11.96,3.84-24.28,5.17-36.78,5.21-9.01,.02-18.01,0-27.02,0Zm-77.73-4.77c13.2,18.9,50.26,23.21,69.83,5.02-23.53-.4-46.67,1.39-69.83-5.02Zm34.11,35.68c-4.48-6.25-9.19-9.61-16.1-8.56-.66,.1-1.46,.52-1.83,1.05-.53,.75,.14,1.54,.82,1.7,5.53,1.32,10.25,5.01,17.12,5.81Zm-49.99-17c3.89,1.62,7.68,2.95,11.84,2.91-3.56-2.2-5.85-9.13-11.84-2.91Z"/><path class="g" d="M175.5,190.74c8.54,14.2,4.96,23.89-10.75,29.03-10.56,3.46-21.58,4.01-32.49,4.22-27.21,.51-54.44,1.25-81.63-.74-9.62-.7-19.15-1.89-27.91-6.6-6.63-3.57-9.73-12.6-6.97-19.63,9.21-23.44,28.67-33.81,50.9-41.28,8.29-2.78,16.72-2.85,25.14-3.46,2.23-.16,4.47-.18,6.68,.16,3.15,.48,8.6-1.12,10.91-.72,25.81,4.47,53,11,66,38,.99,1.2-1.41,.66,.13,1.03Z"/><path class="g" d="M111.37,322.72c-18.31,3.29-34.96-1.23-52.98-4.99-14.13-2.94-26.8-8.62-37.51-18.75-7.39-7-5.71-15.22-4.94-23.53,.23-2.48,1.96-1.75,3.35-1.02,15.65,8.28,32.84,11.84,50.03,13.17,34.69,2.68,69.42,2.82,102.3-11.72,.82-.36,6.82-1.06,7.75-1.16,4.08,4.39-.23,14.64-2,19-4.87,12.02-17.53,16.83-28,22-11.08,5.47-26.13,4.33-38,7Z"/><path class="i" d="M172.49,268.72c-8.41,6.14-18.3,8.2-28.2,10.18-16.34,3.26-32.86,4.52-49.5,4.31-1.06-.01-2.27,.36-3.47-1.18,14.1-3.8,27.06-10.04,40.47-15.09,6.53-2.46,13.08-4.86,19.59-7.37,2.59-1,4.36-.77,6.31,1.68,4.07,5.11,8.49,4.75,10.53-1.32,2.12-6.33,9.55-8.99,15.15-9.2,4.15,2.75,1.14,10.63-2,14-1.73,1.85-5,4-8.88,4Z"/><path class="h" d="M104.29,229.58c9.01,0,18.01,.02,27.02,0,12.5-.03,24.82-1.37,36.78-5.21,1.23-.39,2.82-1.35,3.69-.17,1.18,1.59-.57,2.64-1.56,3.69-13.73,14.36-30.72,15.17-48.67,11.53-6.48-1.31-12.62-3.6-17.26-9.83Z"/><path class="h" d="M26.56,224.81c23.15,6.42,46.3,4.62,69.83,5.02-19.56,18.19-56.62,13.87-69.83-5.02Z"/><path class="f" d="M162.92,254.7c-1.38,4.14-3.01,2.02-4.33,.06-3.97-5.91-7.7-7.07-14.12-4.16-3.65,1.65-6.77,4.1-9.79,6.69-3.17,2.71-6.21,3.21-9.97,.49-8.78-6.35-14.88-5.67-22.36,1.87-.4,.4-.76,.84-1.17,1.23-2.03,1.94-4.46,2.77-7.17,2.01-1.12-.31-2.06-2.04-1.59-2.69,1.53-2.1,2.18-5.52,5.21-5.72,2.13-.14,1.93-.46,2.24-2.33,.63-3.84,3.52-5.75,7.48-4.98,6.39,1.24,12.7,.76,19.13,.32,5.14-.35,10.29,1.2,15.61,.03,9.96-2.19,19.61-4.96,27.77-11.37,2.48-1.95,5.27-3.69,6.26-7.09,.29-.99,1.21-2.02,2.55-1.84,1.31,.18,1.77,1.36,2.13,2.41,.47,1.36-.46,2.24-1.56,2.6-5.84,1.9-8.23,7.33-11.91,11.44-2.56,3.24,2.05,6.04-4.4,11.03Z"/><path class="l" d="M106.43,270.15c-5.62,4.37-11.36,5.16-17.94,1.71-5.47-2.87-11.39-4.86-17.91-7.58,9.33-2.28,17.24-.07,24.78,3.58,2.01,.97,3.01,2.21,4.98-.05,1.8-2.07,4.35-3.47,6.46-5.29,5.69-4.91,10.78-5.03,17.58-.82-6,9-13,8-17.94,8.44Z"/><path class="l" d="M60.67,260.49c-6.87-.8-11.59-4.49-17.12-5.81-.67-.16-1.34-.94-.82-1.7,.37-.53,1.17-.95,1.83-1.05,6.91-1.06,11.62,2.31,16.1,8.56Z"/><path class="l" d="M172.37,247.72c2.71-6.79,3-14,17-5-3.63,2.87-12.68,4.44-17,5Z"/><path class="l" d="M10.68,243.49c5.99-6.21,8.28,.71,11.84,2.91-4.16,.04-7.95-1.29-11.84-2.91Z"/></g><path class="j" d="M427.41,129.58c-.08-.04-.17-.08-.25-.12v.46c.08-.12,.17-.22,.25-.34Z"/><path class="d" d="M370.74,306.1c-6.91,8.53-17.4,12.79-31.47,12.79s-24.56-4.26-31.47-12.79c-6.91-8.53-10.36-18.8-10.36-30.81s3.46-22.04,10.36-30.69c6.91-8.65,17.4-12.98,31.47-12.98s24.56,4.33,31.47,12.98c6.91,8.65,10.37,18.89,10.37,30.69s-3.46,22.28-10.37,30.81Zm-17.12-11.83c3.35-4.45,5.03-10.77,5.03-18.98s-1.68-14.51-5.03-18.94-8.16-6.64-14.42-6.64-11.08,2.21-14.46,6.64-5.07,10.74-5.07,18.94,1.69,14.52,5.07,18.98c3.38,4.45,8.2,6.67,14.46,6.67s11.07-2.22,14.42-6.67Z"/><path class="d" d="M464.69,306.1c-6.91,8.53-17.4,12.79-31.47,12.79s-24.56-4.26-31.47-12.79c-6.91-8.53-10.36-18.8-10.36-30.81s3.46-22.04,10.36-30.69c6.91-8.65,17.4-12.98,31.47-12.98s24.56,4.33,31.47,12.98c6.91,8.65,10.37,18.89,10.37,30.69s-3.46,22.28-10.37,30.81Zm-17.12-11.83c3.35-4.45,5.03-10.77,5.03-18.98s-1.68-14.51-5.03-18.94-8.16-6.64-14.42-6.64-11.08,2.21-14.46,6.64-5.07,10.74-5.07,18.94,1.69,14.52,5.07,18.98c3.38,4.45,8.2,6.67,14.46,6.67s11.07-2.22,14.42-6.67Z"/><g><path d="M104.15,2.95c9.54,3.14,17.27,8.89,23.18,17.26,4.74,6.77,7.97,14.09,9.7,21.96,1.72,7.88,2.59,15.38,2.59,22.52,0,18.09-3.63,33.41-10.9,45.96-9.85,16.92-25.06,25.38-45.62,25.38H24.45V0h58.65c8.44,.12,15.45,1.11,21.06,2.95ZM52.04,23.62V112.4h26.25c13.43,0,22.8-6.61,28.1-19.84,2.9-7.26,4.34-15.9,4.34-25.93,0-13.84-2.17-24.47-6.52-31.88-4.34-7.41-12.99-11.12-25.93-11.12h-26.25Z"/><path d="M209.87,55.82c5.71,2.56,10.43,6.6,14.15,12.11,3.35,4.86,5.53,10.51,6.52,16.92,.58,3.76,.81,9.18,.71,16.25h-59.62c.33,8.21,3.19,13.97,8.56,17.27,3.27,2.05,7.2,3.08,11.8,3.08,4.88,0,8.84-1.25,11.89-3.76,1.66-1.35,3.13-3.23,4.41-5.63h21.85c-.58,4.86-3.22,9.79-7.94,14.8-7.33,7.96-17.6,11.94-30.8,11.94-10.9,0-20.51-3.36-28.84-10.07-8.33-6.71-12.49-17.64-12.49-32.78,0-14.18,3.76-25.06,11.28-32.62,7.52-7.57,17.28-11.35,29.27-11.35,7.12,0,13.54,1.28,19.25,3.84Zm-32.02,18.49c-3.03,3.12-4.93,7.34-5.7,12.67h36.88c-.39-5.68-2.29-9.99-5.7-12.94-3.41-2.94-7.64-4.41-12.7-4.41-5.49,0-9.75,1.56-12.78,4.68Z"/><path d="M263.93,136.03h-21.41V25.32h21.41v110.71Z"/><path d="M306.82,44.4h-21.71V24.65h21.71v19.75Zm-21.71,9.76h21.71v81.87h-21.71V54.16Z"/><path d="M377.98,54.16h22.98l-29.56,81.87h-22.57l-29.36-81.87h24.03l17.05,60.39,17.42-60.39Z"/><path class="j" d="M459.89,74.05c-3.41-2.94-7.64-4.41-12.7-4.41-5.49,0-9.75,1.56-12.78,4.68-3.03,3.12-4.93,7.34-5.7,12.67h36.88c-.39-5.68-2.29-9.99-5.7-12.94Z"/><text class="k" transform="translate(405.13 133.9)"><tspan x="0" y="0">e</tspan></text></g><text class="e" transform="translate(207.62 317.12)"><tspan x="0" y="0">b</tspan></text></g></g></svg>