<?xml version="1.0" encoding="UTF-8"?><svg xmlns="http://www.w3.org/2000/svg" viewBox="0 0 933.53 138.81"><defs><style>.d{fill:#fff;}.e{fill:#62d100;}.f{fill:#fe7e00;}.g{fill:#d10f34;}.h{fill:#5e2a00;}.i{fill:#f9d641;}</style></defs><g id="a"/><g id="b"><g id="c"><g><path d="M76.01,.03c9.61,.32,21.34,2.49,32.6,7.72,11.59,5.39,21.03,12.87,27.08,24.17,2.97,5.55,3.63,11.48,1.09,17.59-1.25,3.02-1.82,6.22,.94,9.04,1.09,1.11,2.11,2.91,1.47,4.24-1.65,3.43,.71,4.08,2.9,5.07,2.06,.93,4.1,1.92,6.15,2.87,1.06,.49,2.01,1.05,1.97,2.45-.05,1.56-1.13,2.16-2.4,2.54-.67,.2-1.4,.38-2.07,.31-3.61-.39-5.68,.01-4.01,4.63,1.39,3.83-.64,7.2-3.44,9.85-1.49,1.41-1.96,2.49-1.22,4.68,2.89,8.56,1.03,16.37-5.48,22.54-6.71,6.35-14.5,10.29-24.04,11.84-4.82,.79-9.76,3.01-14.86,3.7-17.26,2.32-34.47,1.98-51.42-2.07-9.31-2.23-18.63-5.16-25.97-11.65-6.56-5.8-8.81-13.64-7.38-22.26,.62-3.74,.9-6.77-2.37-9.74-2.14-1.95-3.39-5.01-1.47-8.39,.78-1.38,1.91-4.05-1.86-3.9-.99,.04-1.94-.65-2.16-1.71-.27-1.32,.6-2.08,1.68-2.62,1.51-.77,2.97-1.65,4.54-2.3,2.7-1.12,5.2-2.27,4.58-5.95-.08-.49,.12-1.33,.48-1.56,5.26-3.49,1.84-6.2-.61-9.27-4.79-6-4.03-16.77,1.11-22.53,3.31-3.7,5.3-8.33,9.22-11.76,7.58-6.63,16.03-11.22,25.72-13.81C55.51,1.4,64.32-.21,76.01,.03Zm63.04,70.62c-7.1-2.36-7.22-2.32-9.24,2.76-.77,1.02-1.42,1.85,.71,1.99,4.24,.28,7.68-2.04,12.51-3.19l-3.98-1.56Zm-48.31,15.4c-5.08-3.14-6.56-3.03-10.82,.64-1.58,1.36-3.48,2.41-4.83,3.96-1.48,1.69-2.22,.76-3.72,.03-5.64-2.73-11.56-4.39-18.54-2.68,4.88,2.03,9.31,3.53,13.4,5.67,4.92,2.58,9.22,1.98,13.43-1.28,4.27,.21,7.68-2.41,11.51-3.64,1.57-.5,1.61-2.06-.42-2.69Zm31.18-5.23c3.33-1.86,3.31-5.05,3.29-8.25,2.76-3.07,4.55-7.14,8.92-8.56,.82-.27,1.51-.92,1.16-1.94-.27-.79-.61-1.66-1.6-1.8-1-.14-1.7,.63-1.91,1.37-.74,2.54-2.82,3.85-4.68,5.31-6.11,4.79-13.33,6.86-20.78,8.51-3.99,.88-7.84-.28-11.68-.02-4.81,.33-9.54,.69-14.31-.24-2.96-.58-5.13,.85-5.59,3.72-.23,1.4-.08,1.64-1.67,1.74-2.27,.15-2.75,2.71-3.9,4.28-.35,.48,.35,1.78,1.19,2.01,2.03,.56,3.85-.05,5.37-1.51,.31-.29,.58-.62,.88-.92,5.59-5.64,10.16-6.15,16.73-1.4,2.82,2.04,5.09,1.66,7.46-.37,2.26-1.94,4.6-3.77,7.33-5,4.81-2.18,7.6-1.31,10.57,3.11,.99,1.47,2.2,3.05,3.24-.04Zm12.94-2.04c-4.2,.16-7.39,1.21-8.98,5.95-1.52,4.54-4.83,4.81-7.88,.98-1.46-1.83-2.79-2-4.72-1.25-4.87,1.88-9.77,3.68-14.66,5.52-10.04,3.78-19.73,8.45-30.28,11.29,.9,1.16,1.81,.87,2.6,.88,12.45,.16,24.81-.78,37.04-3.22,7.41-1.48,14.81-3.02,21.1-7.62,5.73-.18,10.77-6.3,9.01-10.96-.74-1.96-1.24-2.2-3.23-1.58Zm-4.36,17.63c-.7,.08-1.47,0-2.08,.26-24.6,10.88-50.59,10.78-76.55,8.77-12.86-.99-25.72-3.66-37.43-9.86-1.04-.55-2.33-1.09-2.51,.76-.58,6.22-1.84,12.37,3.7,17.61,8.01,7.58,17.5,11.83,28.07,14.03,13.48,2.81,27.04,4.1,40.75,1.64,1.2,1.66,2.86,.75,4.27,.62,3.58-.35,7.12-1.03,10.7-1.43,10.18-1.14,19.21-5.16,27.24-11.29,6.08-4.64,8.34-11.17,7.46-18.74-.24-2.11-1.35-3.2-3.61-2.37ZM72.45,3.85c-7.53,.86-15.14,.43-22.58,2.93-16.64,5.59-31.2,13.35-38.09,30.89-2.07,5.26,.25,12.02,5.21,14.69,6.56,3.53,13.69,4.42,20.89,4.94,20.34,1.48,40.72,.93,61.08,.55,8.16-.15,16.41-.57,24.31-3.16,11.76-3.85,14.44-11.1,8.04-21.72,.57-2.63-1.37-4.18-2.7-5.88-4.95-6.3-11.18-11.09-18.29-14.72-11.89-6.08-24.45-9.27-37.89-8.52Zm5.59,58.18c3.47,4.67,8.07,6.38,12.91,7.36,13.43,2.73,26.15,2.12,36.42-8.62,.74-.78,2.05-1.56,1.17-2.76-.65-.89-1.84-.17-2.76,.13-8.95,2.87-18.17,3.87-27.52,3.9-6.74,.02-13.48,0-20.22,0Zm-58.17-3.57c9.88,14.14,37.61,17.37,52.25,3.76-17.61-.3-34.92,1.04-52.25-3.76Zm25.52,26.7c-3.36-4.67-6.88-7.19-12.05-6.4-.5,.08-1.09,.39-1.37,.78-.4,.56,.11,1.15,.61,1.27,4.14,.99,7.67,3.75,12.81,4.35ZM7.99,72.44c2.91,1.21,5.75,2.21,8.86,2.18-2.66-1.65-4.38-6.83-8.86-2.18Z"/><path class="f" d="M131.32,32.97c6.39,10.62,3.71,17.88-8.04,21.72-7.9,2.59-16.15,3-24.31,3.16-20.36,.38-40.74,.93-61.08-.55-7.2-.53-14.33-1.41-20.89-4.94-4.96-2.67-7.28-9.43-5.21-14.69C18.67,20.13,33.23,12.38,49.87,6.78c6.2-2.08,12.51-2.13,18.81-2.59,1.67-.12,3.34-.13,5,.12,2.36,.36,6.44-.84,8.16-.54,19.31,3.34,39.66,8.23,49.39,28.43,.74,.9-1.06,.5,.1,.77Z"/><path class="f" d="M83.34,131.72c-13.7,2.46-26.16-.92-39.64-3.73-10.57-2.2-20.06-6.45-28.07-14.03-5.53-5.24-4.27-11.39-3.7-17.61,.17-1.86,1.47-1.31,2.51-.76,11.71,6.19,24.58,8.86,37.43,9.86,25.96,2.01,51.95,2.11,76.55-8.77,.61-.27,5.1-.79,5.8-.87,3.05,3.28-.18,10.96-1.5,14.22-3.64,8.99-13.12,12.6-20.95,16.46-8.29,4.09-19.55,3.24-28.43,5.24Z"/><path class="h" d="M129.07,91.32c-6.29,4.6-13.69,6.14-21.1,7.62-12.23,2.44-24.59,3.39-37.04,3.22-.79-.01-1.7,.27-2.6-.88,10.55-2.84,20.25-7.51,30.28-11.29,4.89-1.84,9.79-3.64,14.66-5.52,1.94-.75,3.27-.57,4.72,1.25,3.05,3.82,6.35,3.56,7.88-.98,1.59-4.74,7.14-6.73,11.34-6.89,3.11,2.06,.86,7.96-1.5,10.48-1.29,1.38-3.74,2.99-6.64,2.99Z"/><path class="g" d="M78.04,62.03c6.74,0,13.48,.01,20.22,0,9.35-.02,18.57-1.02,27.52-3.9,.92-.29,2.11-1.01,2.76-.13,.88,1.19-.43,1.98-1.17,2.76-10.27,10.75-22.98,11.35-36.42,8.62-4.85-.98-9.44-2.69-12.91-7.36Z"/><path class="g" d="M19.87,58.46c17.32,4.8,34.64,3.46,52.25,3.76-14.64,13.61-42.37,10.38-52.25-3.76Z"/><path class="e" d="M121.91,80.83c-1.03,3.1-2.25,1.51-3.24,.04-2.97-4.42-5.76-5.29-10.57-3.11-2.73,1.24-5.07,3.07-7.33,5-2.37,2.03-4.65,2.4-7.46,.37-6.57-4.75-11.14-4.24-16.73,1.4-.3,.3-.57,.63-.88,.92-1.52,1.45-3.34,2.07-5.37,1.51-.84-.23-1.54-1.53-1.19-2.01,1.15-1.57,1.63-4.13,3.9-4.28,1.59-.11,1.45-.35,1.67-1.74,.47-2.87,2.63-4.3,5.59-3.72,4.78,.93,9.5,.57,14.31,.24,3.84-.26,7.7,.9,11.68,.02,7.45-1.64,14.67-3.71,20.78-8.51,1.86-1.46,3.94-2.76,4.68-5.31,.21-.74,.91-1.51,1.91-1.37,.98,.14,1.33,1.01,1.6,1.8,.35,1.02-.34,1.68-1.16,1.94-4.37,1.42-6.16,5.49-8.92,8.56-1.92,2.42,1.53,4.52-3.29,8.25Z"/><path class="i" d="M79.64,92.39c-4.2,3.27-8.5,3.86-13.43,1.28-4.09-2.14-8.52-3.64-13.4-5.67,6.98-1.71,12.9-.05,18.54,2.68,1.51,.73,2.25,1.66,3.72-.03,1.35-1.55,3.25-2.59,4.83-3.96,4.26-3.67,8.07-3.76,13.15-.62-4.49,6.73-9.73,5.99-13.42,6.31Z"/><path class="i" d="M45.39,85.16c-5.14-.6-8.67-3.36-12.81-4.35-.5-.12-1.01-.71-.61-1.27,.28-.39,.87-.71,1.37-.78,5.17-.79,8.69,1.73,12.05,6.4Z"/><path class="i" d="M128.98,75.6c2.02-5.08,2.24-10.48,12.72-3.74-2.72,2.15-9.49,3.32-12.72,3.74Z"/><path class="i" d="M7.99,72.44c4.48-4.65,6.2,.53,8.86,2.18-3.11,.03-5.95-.97-8.86-2.18Z"/></g><path class="d" d="M829.21,123.1c-6.91,8.53-17.4,12.79-31.47,12.79s-24.56-4.26-31.47-12.79c-6.91-8.53-10.36-18.8-10.36-30.81s3.46-22.04,10.36-30.69c6.91-8.65,17.4-12.98,31.47-12.98s24.56,4.33,31.47,12.98c6.91,8.65,10.37,18.89,10.37,30.69s-3.46,22.28-10.37,30.81Zm-17.12-11.83c3.35-4.45,5.03-10.77,5.03-18.98s-1.68-14.51-5.03-18.94-8.16-6.64-14.42-6.64-11.08,2.21-14.46,6.64-5.07,10.74-5.07,18.94,1.69,14.52,5.07,18.98c3.38,4.45,8.2,6.67,14.46,6.67s11.07-2.22,14.42-6.67Z"/><path class="d" d="M923.16,123.1c-6.91,8.53-17.4,12.79-31.47,12.79s-24.56-4.26-31.47-12.79c-6.91-8.53-10.36-18.8-10.36-30.81s3.46-22.04,10.36-30.69c6.91-8.65,17.4-12.98,31.47-12.98s24.56,4.33,31.47,12.98c6.91,8.65,10.37,18.89,10.37,30.69s-3.46,22.28-10.37,30.81Zm-17.12-11.83c3.35-4.45,5.03-10.77,5.03-18.98s-1.68-14.51-5.03-18.94-8.16-6.64-14.42-6.64-11.08,2.21-14.46,6.64-5.07,10.74-5.07,18.94,1.69,14.52,5.07,18.98c3.38,4.45,8.2,6.67,14.46,6.67s11.07-2.22,14.42-6.67Z"/><path class="d" d="M240.62,2.95c9.54,3.14,17.27,8.89,23.18,17.26,4.74,6.77,7.97,14.09,9.7,21.96,1.72,7.88,2.59,15.38,2.59,22.52,0,18.09-3.63,33.41-10.9,45.96-9.85,16.92-25.06,25.38-45.62,25.38h-58.65V0h58.65c8.44,.12,15.45,1.11,21.06,2.95Zm-52.11,20.67V112.4h26.25c13.43,0,22.8-6.61,28.1-19.84,2.9-7.26,4.34-15.9,4.34-25.93,0-13.84-2.17-24.47-6.52-31.88-4.34-7.41-12.99-11.12-25.93-11.12h-26.25Z"/><path class="d" d="M346.35,55.82c5.71,2.56,10.43,6.6,14.15,12.11,3.35,4.86,5.53,10.51,6.52,16.92,.58,3.76,.81,9.18,.71,16.25h-59.62c.33,8.21,3.19,13.97,8.56,17.27,3.27,2.05,7.2,3.08,11.8,3.08,4.88,0,8.84-1.25,11.89-3.76,1.66-1.35,3.13-3.23,4.41-5.63h21.85c-.58,4.86-3.22,9.79-7.94,14.8-7.33,7.96-17.6,11.94-30.8,11.94-10.9,0-20.51-3.36-28.84-10.07-8.33-6.71-12.49-17.64-12.49-32.78,0-14.18,3.76-25.06,11.28-32.62,7.52-7.57,17.28-11.35,29.27-11.35,7.12,0,13.54,1.28,19.25,3.84Zm-32.02,18.49c-3.03,3.12-4.93,7.34-5.7,12.67h36.88c-.39-5.68-2.29-9.99-5.7-12.94-3.41-2.94-7.64-4.41-12.7-4.41-5.49,0-9.75,1.56-12.78,4.68Z"/><path class="d" d="M400.4,136.03h-21.41V25.32h21.41v110.71Z"/><path class="d" d="M443.29,44.4h-21.71V24.65h21.71v19.75Zm-21.71,9.76h21.71v81.87h-21.71V54.16Z"/><path class="d" d="M514.45,54.16h22.98l-29.56,81.87h-22.57l-29.36-81.87h24.03l17.05,60.39,17.42-60.39Z"/><path class="d" d="M735.76,15.06c4.11,5.72,6.17,12.56,6.17,20.53s-2.08,14.81-6.23,19.8c-2.32,2.8-5.74,5.35-10.26,7.66,6.86,2.5,12.04,6.45,15.54,11.86,3.49,5.41,5.24,11.98,5.24,19.71s-2,15.12-5.99,21.44c-2.54,4.2-5.72,7.73-9.52,10.58-4.29,3.28-9.36,5.54-15.2,6.75-5.84,1.22-12.17,1.82-19,1.82h-60.6V.74h64.99c16.4,.24,28.02,5.02,34.86,14.33Zm-73.03,9.03v29.65h32.69c5.84,0,10.58-1.11,14.22-3.33,3.64-2.22,5.46-6.16,5.46-11.82,0-6.26-2.41-10.4-7.22-12.41-4.15-1.4-9.45-2.1-15.89-2.1h-29.26Zm0,51.92v35.86h32.65c5.83,0,10.37-.79,13.62-2.37,5.89-2.92,8.84-8.52,8.84-16.79,0-6.99-2.86-11.8-8.57-14.42-3.19-1.46-7.67-2.22-13.44-2.28h-33.1Z"/><path class="d" d="M603.77,54.52c5.66,2.53,10.33,6.53,14.01,12,3.32,4.82,5.47,10.41,6.46,16.76,.57,3.73,.8,9.09,.7,16.09h-59.06c.33,8.13,3.16,13.84,8.48,17.11,3.24,2.03,7.14,3.05,11.69,3.05,4.83,0,8.75-1.24,11.77-3.72,1.65-1.34,3.1-3.2,4.36-5.58h21.65c-.57,4.81-3.19,9.7-7.86,14.66-7.26,7.89-17.43,11.83-30.51,11.83-10.79,0-20.31-3.33-28.56-9.98-8.25-6.65-12.37-17.47-12.37-32.47,0-14.05,3.72-24.82,11.17-32.31,7.45-7.5,17.11-11.24,29-11.24,7.06,0,13.41,1.27,19.07,3.8Zm-31.72,18.32c-3,3.09-4.88,7.27-5.65,12.55h36.53c-.39-5.63-2.27-9.9-5.65-12.81s-7.57-4.37-12.58-4.37c-5.44,0-9.66,1.54-12.66,4.63Z"/></g></g></svg>